# xmcd CD database file
#
# Track frame offsets:
#	150
#	23365
#	38935
#	62147
#
# Disc length: 1034 seconds
#
# Revision: 0
# Processed by: cddbd v1.5.1PL2 Copyright (c) Steve Scherf et al.
# Submitted via: CDex 1.51
#
DISCID=28040804
DTITLE=黒木 瞳 - 運命〜ぐうぜん〜
DYEAR=2005
DGENRE=JPop
TTITLE0=運命〜ぐうぜん〜
TTITLE1=小顔マンボ
TTITLE2=運命〜ぐうぜん〜(オリジナル・カラオケ)
TTITLE3=小顔マンボ(オリジナル・カラオケ)
EXTD=YEAR: 2005
EXTT0=
EXTT1=
EXTT2=
EXTT3=
PLAYORDER=
